<?xml version="1.0" encoding="utf-8"?>
<!-- Generator: Adobe Illustrator 16.0.0, SVG Export Plug-In . SVG Version: 6.00 Build 0)  -->
<!DOCTYPE svg PUBLIC "-//W3C//DTD SVG 1.1//EN" "http://www.w3.org/Graphics/SVG/1.1/DTD/svg11.dtd">
<svg version="1.1" id="Layer_1" xmlns="http://www.w3.org/2000/svg" xmlns:xlink="http://www.w3.org/1999/xlink" x="0px" y="0px"
	 width="459px" height="100px" viewBox="0 0 459 100" enable-background="new 0 0 459 100" xml:space="preserve">
<g>
	<defs>
		<rect id="SVGID_1_" x="-77" y="-345.25" width="612.25" height="792.25"/>
	</defs>
	<clipPath id="SVGID_2_">
		<use xlink:href="#SVGID_1_"  overflow="visible"/>
	</clipPath>
	<path clip-path="url(#SVGID_2_)" fill="#FF6C2C" d="M371.799,95.945c-1.973-0.145-3.94-0.705-5.783-1.727
		c-6.806-3.764-9.273-12.33-5.509-19.135l34.562-61.957c3.764-6.804,12.33-9.274,19.137-5.506
		c6.808,3.761,9.273,12.329,5.511,19.137l-34.563,61.955C382.409,93.675,377.108,96.332,371.799,95.945"/>
</g>
<g>
	<defs>
		<path id="SVGID_3_" d="M395.068,13.125l-34.563,61.959c-3.764,6.805-1.297,15.371,5.51,19.136
			c1.842,1.021,3.812,1.581,5.782,1.727c5.311,0.386,10.611-2.272,13.356-7.233l34.561-61.954
			c3.763-6.809,1.296-15.378-5.508-19.138c-2.16-1.196-4.498-1.763-6.803-1.763C402.446,5.858,397.637,8.483,395.068,13.125"/>
	</defs>
	<clipPath id="SVGID_4_">
		<use xlink:href="#SVGID_3_"  overflow="visible"/>
	</clipPath>
	<polygon clip-path="url(#SVGID_4_)" fill="#E6E7E8" points="386.164,26.799 407.449,49.104 396.807,9.612 	"/>
</g>
<g>
	<defs>
		<rect id="SVGID_5_" x="-77" y="-345.25" width="612.25" height="792.25"/>
	</defs>
	<clipPath id="SVGID_6_">
		<use xlink:href="#SVGID_5_"  overflow="visible"/>
	</clipPath>
	<path clip-path="url(#SVGID_6_)" fill="#FF6C2C" d="M19.333,95.945c-1.972-0.145-3.942-0.705-5.784-1.727
		c-6.806-3.764-9.273-12.33-5.508-19.135l34.562-61.957c3.763-6.804,12.331-9.274,19.136-5.506
		c6.807,3.761,9.274,12.329,5.511,19.137L32.688,88.713C29.942,93.675,24.642,96.332,19.333,95.945"/>
	<path clip-path="url(#SVGID_6_)" fill="#FF6C2C" d="M443.07,95.945c1.973-0.145,3.939-0.705,5.784-1.727
		c6.805-3.764,9.271-12.33,5.508-19.135l-34.562-61.957c-3.763-6.804-12.331-9.274-19.138-5.506
		c-6.807,3.761-9.271,12.329-5.51,19.137l34.563,61.955C432.461,93.675,437.763,96.332,443.07,95.945"/>
	<path clip-path="url(#SVGID_6_)" fill="#FF6C2C" d="M225.036,96.423c-21.741,0-39.43-17.686-39.43-39.43V19.938
		c0-7.387,5.991-13.377,13.378-13.377c7.388,0,13.378,5.99,13.378,13.377v37.055c0,6.99,5.687,12.674,12.674,12.674
		c6.988,0,12.675-5.684,12.675-12.674V20.291c0-7.388,5.989-13.378,13.376-13.378c7.39,0,13.38,5.99,13.38,13.378v36.703
		C264.467,78.737,246.778,96.423,225.036,96.423"/>
	<path clip-path="url(#SVGID_6_)" fill="#FF6C2C" d="M308.54,95.719h-17.938c-7.387,0-13.377-5.988-13.377-13.378
		c0-7.388,5.99-13.378,13.377-13.378h17.938c9.827,0,17.824-7.992,17.824-17.822c0-9.826-7.997-17.822-17.824-17.822h-18.088
		c-7.384,0-13.374-5.992-13.374-13.38c0-7.387,5.99-13.377,13.374-13.377h18.088c24.58,0,44.58,19.998,44.58,44.58
		C353.12,75.723,333.12,95.719,308.54,95.719"/>
	<path clip-path="url(#SVGID_6_)" fill="#FF6C2C" d="M120.382,50.956l21.712-38.597c3.64-6.581,11.927-8.97,18.51-5.327
		c6.582,3.641,8.967,11.928,5.328,18.512l-22.088,39.345"/>
	<path clip-path="url(#SVGID_6_)" fill="#FF6C2C" d="M146.784,59.529l-26.27-46.79c-3.64-6.582-11.927-8.971-18.511-5.327
		c-6.582,3.64-8.967,11.926-5.327,18.51l26.746,47.417"/>
	<path clip-path="url(#SVGID_6_)" fill="#FF6C2C" d="M126.843,94.681c1.792,0.834,3.788,1.299,5.894,1.303
		c7.777,0.019,14.097-6.272,14.114-14.046l-0.064-22.34l-28.164-0.064l0.064,22.338C118.673,87.54,122.016,92.439,126.843,94.681"/>
</g>
<g>
	<defs>
		<path id="SVGID_7_" d="M42.603,13.125L8.041,75.084C4.277,81.889,6.744,90.455,13.55,94.22c1.842,1.021,3.811,1.581,5.784,1.727
			c5.308,0.386,10.609-2.272,13.354-7.233L67.25,26.759c3.763-6.809,1.297-15.378-5.509-19.138c-2.16-1.196-4.497-1.763-6.803-1.763
			C49.981,5.858,45.172,8.483,42.603,13.125"/>
	</defs>
	<clipPath id="SVGID_8_">
		<use xlink:href="#SVGID_7_"  overflow="visible"/>
	</clipPath>
	<polygon clip-path="url(#SVGID_8_)" fill="#E6E7E8" points="33.699,26.799 54.984,49.104 44.342,9.612 	"/>
</g>
<g>
	<defs>
		<path id="SVGID_9_" d="M142.094,12.359l-21.711,38.597l23.462,13.933l22.087-39.345c3.64-6.584,1.254-14.871-5.328-18.513
			c-2.089-1.155-4.349-1.704-6.579-1.704C149.229,5.327,144.579,7.867,142.094,12.359"/>
	</defs>
	<clipPath id="SVGID_10_">
		<use xlink:href="#SVGID_9_"  overflow="visible"/>
	</clipPath>
	<polygon clip-path="url(#SVGID_10_)" fill="#E6E7E8" points="134.966,24.865 131.186,31.737 146.784,59.528 	"/>
</g>
<g>
	<defs>
		<rect id="SVGID_11_" x="-77" y="-345.25" width="612.25" height="792.25"/>
	</defs>
	<clipPath id="SVGID_12_">
		<use xlink:href="#SVGID_11_"  overflow="visible"/>
	</clipPath>
	<path clip-path="url(#SVGID_12_)" fill="#FF6C2C" d="M90.549,95.945c1.972-0.145,3.942-0.705,5.784-1.727
		c6.806-3.764,9.273-12.33,5.509-19.135L67.28,13.127c-3.763-6.804-12.332-9.274-19.138-5.506
		c-6.806,3.761-9.272,12.329-5.509,19.137l34.562,61.955C79.939,93.675,85.241,96.332,90.549,95.945"/>
</g>
</svg>
